<svg xmlns="http://www.w3.org/2000/svg" viewBox="0 0 280 200" fill="none">
  <rect width="280" height="200" rx="12" fill="#F8FAFC"/>
  <!-- Newspaper -->
  <rect x="60" y="35" width="100" height="130" rx="6" fill="white" stroke="#CBD5E1" stroke-width="1.5"/>
  <rect x="70" y="48" width="50" height="8" rx="2" fill="#3B82F6"/>
  <rect x="70" y="62" width="80" height="3" rx="1.5" fill="#E2E8F0"/>
  <rect x="70" y="70" width="80" height="3" rx="1.5" fill="#E2E8F0"/>
  <rect x="70" y="78" width="60" height="3" rx="1.5" fill="#E2E8F0"/>
  <rect x="70" y="90" width="36" height="36" rx="4" fill="#DBEAFE"/>
  <rect x="112" y="90" width="38" height="3" rx="1.5" fill="#E2E8F0"/>
  <rect x="112" y="98" width="38" height="3" rx="1.5" fill="#E2E8F0"/>
  <rect x="112" y="106" width="30" height="3" rx="1.5" fill="#E2E8F0"/>
  <rect x="70" y="134" width="80" height="3" rx="1.5" fill="#E2E8F0"/>
  <rect x="70" y="142" width="80" height="3" rx="1.5" fill="#E2E8F0"/>
  <rect x="70" y="150" width="50" height="3" rx="1.5" fill="#E2E8F0"/>
  <!-- Second paper behind -->
  <rect x="120" y="45" width="100" height="130" rx="6" fill="white" stroke="#CBD5E1" stroke-width="1.5" opacity="0.7"/>
  <rect x="130" y="58" width="50" height="8" rx="2" fill="#93C5FD" opacity="0.6"/>
  <rect x="130" y="72" width="80" height="3" rx="1.5" fill="#E2E8F0" opacity="0.6"/>
  <rect x="130" y="80" width="80" height="3" rx="1.5" fill="#E2E8F0" opacity="0.6"/>
  <!-- Megaphone icon -->
  <circle cx="210" cy="60" r="22" fill="#DBEAFE"/>
  <path d="M203 55l14-6v22l-14-6v-10z" fill="#3B82F6"/>
  <rect x="198" y="55" width="6" height="10" rx="2" fill="#3B82F6"/>
  <path d="M217 52v0" stroke="#3B82F6" stroke-width="2" stroke-linecap="round"/>
  <path d="M222 49c3 3 3 13 0 16" stroke="#93C5FD" stroke-width="2" stroke-linecap="round"/>
  <path d="M226 45c5 5 5 20 0 25" stroke="#BFDBFE" stroke-width="2" stroke-linecap="round"/>
</svg>