<svg xmlns="http://www.w3.org/2000/svg" viewBox="0 0 280 200" fill="none">
  <rect width="280" height="200" rx="12" fill="#F8FAFC"/>
  <!-- Building -->
  <rect x="90" y="40" width="100" height="125" rx="4" fill="white" stroke="#CBD5E1" stroke-width="1.5"/>
  <!-- Windows -->
  <rect x="102" y="55" width="16" height="16" rx="3" fill="#DBEAFE"/>
  <rect x="132" y="55" width="16" height="16" rx="3" fill="#DBEAFE"/>
  <rect x="162" y="55" width="16" height="16" rx="3" fill="#DBEAFE"/>
  <rect x="102" y="80" width="16" height="16" rx="3" fill="#DBEAFE"/>
  <rect x="132" y="80" width="16" height="16" rx="3" fill="#3B82F6" opacity="0.3"/>
  <rect x="162" y="80" width="16" height="16" rx="3" fill="#DBEAFE"/>
  <rect x="102" y="105" width="16" height="16" rx="3" fill="#3B82F6" opacity="0.3"/>
  <rect x="132" y="105" width="16" height="16" rx="3" fill="#DBEAFE"/>
  <rect x="162" y="105" width="16" height="16" rx="3" fill="#DBEAFE"/>
  <!-- Door -->
  <rect x="125" y="135" width="30" height="30" rx="4" fill="#3B82F6"/>
  <circle cx="150" cy="150" r="2" fill="white"/>
  <!-- Ground -->
  <rect x="50" y="165" width="180" height="3" rx="1.5" fill="#E2E8F0"/>
  <!-- Location pin -->
  <g transform="translate(200, 35)">
    <path d="M15 0C8.4 0 3 5.4 3 12c0 9 12 20 12 20s12-11 12-20c0-6.6-5.4-12-12-12z" fill="#3B82F6" opacity="0.8"/>
    <circle cx="15" cy="12" r="5" fill="white"/>
  </g>
  <!-- Small tree -->
  <circle cx="68" cy="145" r="14" fill="#DBEAFE"/>
  <rect x="66" y="155" width="4" height="12" rx="2" fill="#CBD5E1"/>
</svg>